<svg xmlns="http://www.w3.org/2000/svg" width="512" height="512" viewBox="0 0 512 512" role="img" aria-label="Treat Yourself icon">
  <defs>
    <linearGradient id="bg" x1="48" y1="28" x2="470" y2="486" gradientUnits="userSpaceOnUse">
      <stop stop-color="#F8DCE4"/>
      <stop offset="0.48" stop-color="#DCCBFF"/>
      <stop offset="1" stop-color="#8B5CF6"/>
    </linearGradient>
    <linearGradient id="petal" x1="138" y1="112" x2="378" y2="400" gradientUnits="userSpaceOnUse">
      <stop stop-color="#FFFFFF"/>
      <stop offset="1" stop-color="#FFF7ED"/>
    </linearGradient>
  </defs>
  <rect width="512" height="512" rx="128" fill="url(#bg)"/>
  <circle cx="394" cy="118" r="46" fill="#FFF7D6" opacity="0.86"/>
  <circle cx="128" cy="146" r="22" fill="#FFFFFF" opacity="0.7"/>
  <path d="M256 400C187 350 149 290 149 208c62 13 99 51 107 115 9-64 46-102 107-115 0 82-38 142-107 192Z" fill="url(#petal)" opacity="0.96"/>
  <path d="M256 342C203 302 180 253 184 186c45 17 67 52 72 105 5-53 27-88 72-105 4 67-19 116-72 156Z" fill="#F4C4D1" opacity="0.88"/>
  <path d="M256 298C219 250 216 199 256 133c40 66 37 117 0 165Z" fill="#8B5CF6" opacity="0.92"/>
  <path d="M128 380c70 40 187 44 256 0" fill="none" stroke="#FFFFFF" stroke-width="26" stroke-linecap="round" opacity="0.72"/>
</svg>